<mxfile host="app.diagrams.net" modified="2024-06-16T15:12:27.955Z" agent="Mozilla/5.0 (Windows NT 10.0; Win64; x64) AppleWebKit/537.36 (KHTML, like Gecko) Chrome/126.0.0.0 Safari/537.36" version="24.5.4" etag="B2-DEODsESBBcxh8uF1u" type="github">
  <diagram name="PÃ¡gina-1" id="XwG0qR-dqioNehBfLJ-C">
    <mxGraphModel>
      <root>
        <mxCell id="0" />
        <mxCell id="1" parent="0" />
      </root>
    </mxGraphModel>
  </diagram>
</mxfile>
